<?xml version="1.0" encoding="utf-8"?><svg width="72" height="72" fill="none" xmlns="http://www.w3.org/2000/svg"><g clip-path="url(#clip0)"><g clip-path="url(#clip1)"><path d="M33.045 49H22a1 1 0 01-1-1V15.455a1 1 0 011-1h28.455a1 1 0 011 1V48a1 1 0 01-1 1H39.409" stroke="#0043EA" stroke-width="2"/><path d="M40 44.682a3.773 3.773 0 11-7.545 0 3.773 3.773 0 017.546 0z" stroke="#0043EA" stroke-width="2"/><path d="M33.273 47.636v5.91l3.182-1.592 2.727 1.591v-5.909" stroke="#0043EA" stroke-width="2"/><mask id="a" fill="#fff"><rect x="24.182" y="17.636" width="9.091" height="10" rx="1"/></mask><rect x="24.182" y="17.636" width="9.091" height="10" rx="1" stroke="#0043EA" stroke-width="4" mask="url(#a)"/><path stroke="#0043EA" stroke-width="2" stroke-linecap="round" d="M37 17.545h10.727M37 21.864h10.727M37 26.636h10.727m-22.545 5.909h22.545m-22.545 3.182h2.545m15.636 0h4.364"/></g><path d="M36.365 1L9 6.052v36.443C8.999 59.454 36.365 71 36.365 71S63 57.652 63 42.495V6.052L36.365 1z" stroke="#0043EA" stroke-width="2" stroke-linecap="round"/></g><defs><clipPath id="clip0"><path fill="#fff" d="M0 0h72v72H0z"/></clipPath><clipPath id="clip1"><path fill="#fff" transform="translate(16 14)" d="M0 0h40v40H0z"/></clipPath></defs></svg>