<?xml version="1.0" encoding="utf-8"?><svg width="72" height="72" fill="none" xmlns="http://www.w3.org/2000/svg"><g clip-path="url(#clip0)" stroke="#0043EA" stroke-width="2"><path d="M39.583 44a3.667 3.667 0 11-7.333 0m-1.834-8.843c1.582.375 3.47 1.052 5.5 1.052s3.918-.677 5.5-1.052"/><path d="M41.333 37.584a5.417 5.417 0 11-10.833 0 5.417 5.417 0 0110.833 0z"/><path d="M33.167 43.084l-2.466 2.818a3 3 0 00-.742 1.975v2.801a3 3 0 001.292 2.467l2.959 2.048a3 3 0 003.415 0l2.958-2.048a3 3 0 001.293-2.467v-2.8a3 3 0 00-.743-1.976l-2.466-2.819" stroke-linecap="round" stroke-linejoin="round"/><path d="M29.499 32.083a4.583 4.583 0 11-9.167 0m-2.75-3.665a9.153 9.153 0 007.333 3.665 9.156 9.156 0 007.334-3.665"/><path d="M20.988 31.69l-3.841 4.39a3 3 0 00-.743 1.976v5.158a3 3 0 001.293 2.466l5.512 3.816a3 3 0 003.415 0l3.305-2.288M28.845 31.69l2.291 2.62" stroke-linecap="round" stroke-linejoin="round"/><path d="M42.333 32.084a4.583 4.583 0 009.167 0m-12.834-8.149c0 4.5 3.694 8.148 8.25 8.148s8.25-3.648 8.25-8.148c0-1.003-.122-1.047-.458-1.935"/><path d="M50.844 31.69l3.841 4.39a3 3 0 01.743 1.976v5.158a3 3 0 01-1.293 2.466l-5.511 3.816a3 3 0 01-3.416 0l-3.305-2.288m1.084-15.518l-2.291 2.62M20.4 21.732c1.36.877 2.72.877 4.08 0 .883-.57.905-2.632.905-2.632s3.583 1.517 4.534 3.51c.671 1.408.453 2.632.453 3.948 0 .856.525 1.47 1.36 1.755 1.203.41 2.266-.44 2.266-1.755 0-1.2.192-2.764 0-3.949-.755-4.669-3.732-6.842-8.612-7.019-5.913-.214-10.426 4.826-9.52 10.968.142.96.818 1.648 1.813 1.755 1.127.12 2.267-.878 2.267-1.755 0-1.893-.39-5.37.453-4.826z" stroke-linecap="round" stroke-linejoin="round"/><path d="M50.064 20.629c-2.027.991-6.08 1.487-8.108.991 0 0-.014 1.914-1.014 2.478-1.028.58-2.714 1.117-3.04 0-1.014-3.47 3.202-9.11 8.108-9.417 4.504-.281 9.629 3.47 9.122 6.94-.188 1.285-1.75 1.788-3.04 1.486-1.233-.288-2.028-2.478-2.028-2.478z" stroke-linejoin="round"/><path d="M36.365 1L9 6.052v36.443C8.999 59.454 36.365 71 36.365 71S63 57.652 63 42.495V6.052L36.365 1z" stroke-linecap="round"/></g><defs><clipPath id="clip0"><path fill="#fff" d="M0 0h72v72H0z"/></clipPath></defs></svg>