<?xml version="1.0" encoding="utf-8"?><svg width="72" height="72" fill="none" xmlns="http://www.w3.org/2000/svg"><g clip-path="url(#clip0)" stroke="#0043EA" stroke-width="2"><path d="M56 51.5H16.5v-3h3V46h34v2.5H56v3zM21 46l1.2-3h6.6l1.2 3m-9-21l1.2 3h6.6l1.2-3m-6 3h3v15h-3zm8.5 18l1.2-3h6.6l1.2 3m-9-21l1.2 3h6.6l1.2-3m-6 3h3v15h-3zM57 24H15l21-12 21 12zM44 46l1.2-3h6.6l1.2 3m-9-21l1.2 3h6.6l1.2-3m-6 3h3v15h-3z" stroke-linecap="round" stroke-linejoin="round"/><circle cx="36" cy="19" r="1"/><path d="M36.365 1L9 6.052v36.443C8.999 59.454 36.365 71 36.365 71S63 57.652 63 42.495V6.052L36.365 1z" stroke-linecap="round"/></g><defs><clipPath id="clip0"><path fill="#fff" d="M0 0h72v72H0z"/></clipPath></defs></svg>