<?xml version="1.0" encoding="utf-8"?><svg width="72" height="72" fill="none" xmlns="http://www.w3.org/2000/svg"><g clip-path="url(#clip0)" stroke="#0043EA" stroke-width="2"><path d="M19 22.128h34V44a3 3 0 01-3 3H22a3 3 0 01-3-3V22.128z"/><path d="M19.5 23.25s1.82 9.455 12.638 11.428M53 23.25s-1.983 9.455-12.68 11.428m-7.4.516v-3.637h6.64v3.637a3.32 3.32 0 11-6.64 0zM29.28 21.6V21a6 6 0 016-6h1.92a6 6 0 016 6v.6" stroke-linecap="round" stroke-linejoin="round"/><path d="M36.365 1L9 6.052v36.443C8.999 59.454 36.365 71 36.365 71S63 57.652 63 42.495V6.052L36.365 1z" stroke-linecap="round"/></g><defs><clipPath id="clip0"><path fill="#fff" d="M0 0h72v72H0z"/></clipPath></defs></svg>