<?xml version="1.0" encoding="utf-8"?><svg width="72" height="72" fill="none" xmlns="http://www.w3.org/2000/svg"><g clip-path="url(#clip0)"><g clip-path="url(#clip1)"><path d="M24.217 22.218h7.724v.997m-7.724-.997l-8.22-1.744v14.2h8.22m0-12.456v12.457m0 0h7.724v-1.246m0-10.214s1.952.111 2.99-.499c1.375-.808 1.364-1.931 2.74-2.74.875-.515 2.105-.997 2.105-.997m-7.836 4.236v10.214m18.935-8.47s1.245-.748 1.245-1.994c0-.76-.747-1.494-1.744-1.494h-2.99m3.489 3.488s1.318.894 1.245 1.993c-.069 1.031-1.993 1.743-1.993 1.743m.748-3.736H49.38m.747 3.736h-1.245m1.245 0s.997.499.997 1.744c0 1.246-.997 1.993-.997 1.993m0 0h-1.993m1.993 0s.792 1.119.498 1.993c-.368 1.098-2.49 1.38-2.49 1.38m0 0H40.66m7.474 0s5.98 5.098 5.98 9.831c0 3.314-3.24 6.478-5.232 6.478h-8.97c-2.74 0-5.73-3.239-5.73-6.478 0-4.597 6.478-9.831 6.478-9.831m-8.72-2.376s1.864-.058 2.99.25c1.354.368 1.642 1.603 2.99 1.992 1.03.298 2.74.134 2.74.134m6.727-14.334H40.66l-2.74-7.723h12.207l-2.74 7.723z" stroke="#0043EA" stroke-width="2" stroke-linecap="round" stroke-linejoin="round"/><mask id="a" fill="#fff"><ellipse cx="47.743" cy="41.686" rx="1.993" ry="2.491"/></mask><path d="M47.736 41.686c0 .265-.088.44-.145.512-.027.033-.035.03-.007.015a.353.353 0 01.16-.036v4c2.598 0 3.992-2.45 3.992-4.491h-4zm.007.491c.07 0 .127.02.16.036.027.015.02.018-.008-.015-.057-.072-.145-.247-.145-.512h-4c0 2.04 1.394 4.491 3.993 4.491v-4zm.007-.491c0-.266.088-.44.145-.513.027-.033.035-.03.007-.015a.352.352 0 01-.159.036v-4c-2.599 0-3.993 2.45-3.993 4.492h4zm-.007-.492a.353.353 0 01-.159-.036c-.028-.014-.02-.018.007.015.057.072.145.247.145.513h4c0-2.041-1.394-4.492-3.993-4.492v4z" fill="#0043EA" mask="url(#a)"/><mask id="b" fill="#fff"><ellipse cx="41.407" cy="46.882" rx="1.993" ry="2.491"/></mask><path d="M41.4 46.882c0 .266-.088.44-.145.512-.027.034-.034.03-.007.015a.352.352 0 01.16-.036v4c2.598 0 3.992-2.45 3.992-4.491h-4zm.007.491c.07 0 .127.02.16.036.027.015.02.019-.007-.015-.058-.072-.146-.246-.146-.512h-4c0 2.04 1.394 4.491 3.993 4.491v-4zm.007-.491c0-.266.088-.44.146-.512.026-.034.034-.03.006-.015a.352.352 0 01-.159.036v-4c-2.599 0-3.993 2.45-3.993 4.49h4zm-.007-.491a.352.352 0 01-.159-.036c-.027-.015-.02-.019.007.015.057.072.145.246.145.512h4c0-2.041-1.394-4.491-3.993-4.491v4z" fill="#0043EA" mask="url(#b)"/><path stroke="#0043EA" stroke-width="2" stroke-linecap="round" stroke-linejoin="round" d="M42.562 40.698l4.479 7.736"/></g><path d="M36.365 1L9 6.052v36.443C8.999 59.454 36.365 71 36.365 71S63 57.652 63 42.495V6.052L36.365 1z" stroke="#0043EA" stroke-width="2" stroke-linecap="round"/></g><defs><clipPath id="clip0"><path fill="#fff" d="M0 0h72v72H0z"/></clipPath><clipPath id="clip1"><path fill="#fff" transform="matrix(-1 0 0 1 56 13)" d="M0 0h41v41H0z"/></clipPath></defs></svg>