<?xml version="1.0" encoding="utf-8"?><svg width="72" height="72" fill="none" xmlns="http://www.w3.org/2000/svg"><g clip-path="url(#clip0)" stroke="#0043EA" stroke-width="2" stroke-linecap="round"><g clip-path="url(#clip1)" stroke-linejoin="round"><path d="M45.517 52.068H25.95l2.563-3.96h14.21l2.795 3.96zM33.705 15.96a2.028 2.028 0 114.057 0v31.38h-4.057V15.96zm-11.182 2.96h26.421M15.7 31.568l5.823-12.113 6.057 12.113m-11.88 0h11.88m-11.88 0s0 6.057 5.823 6.057c6.058 0 6.057-6.057 6.057-6.057m16.307 0l5.824-12.113 6.056 12.113m-11.88 0h11.88m-11.88 0s0 6.057 5.824 6.057c6.058 0 6.056-6.057 6.056-6.057"/></g><path d="M36.365 1L9 6.124v36.964C8.999 60.288 36.365 72 36.365 72S63 58.461 63 43.088V6.124L36.365 1z"/></g><defs><clipPath id="clip0"><path fill="#fff" d="M0 0h72v72H0z"/></clipPath><clipPath id="clip1"><path fill="#fff" transform="translate(15 12)" d="M0 0h41v41H0z"/></clipPath></defs></svg>